<svg width="600" height="1027" viewBox="0 0 600 1027" fill="none" xmlns="http://www.w3.org/2000/svg">
<g id="music">
<path id="line1" d="M126.5 1C127.167 161.676 459.521 370.438 307.5 532C266.083 576.016 239.209 599.752 189 641.5C72.387 755.986 164.28 938.972 3 1024.5C2.66667 1024.67 2 1025.2 2 1026" stroke="#E6C56B" stroke-width="3"/>
<path id="line2" d="M184.5 1C175.5 187 502.5 350.5 373 549C316.526 619.326 229.5 664.5 175.5 751.5C130.5 824 145.467 966.689 58.0001 1025C57.5001 1025.5 57.5 1025.6 57.5 1026" stroke="#E6C56B" stroke-width="3"/>
<path id="line3" d="M122 1026C122 1025.6 122 1025.5 122 1025.5C171.385 900.863 197.704 728.884 327 655.5C706.445 440.14 213 249.5 243 1.5V1" stroke="#E6C56B" stroke-width="3"/>
<path id="line4" d="M167.5 1026C167.5 903.5 212.844 838.984 255 790C326 707.5 423.026 666.826 479.5 596.5C633.648 404.542 243.917 196.549 286 2.5V1" stroke="#E6C56B" stroke-width="3"/>
<path id="line5" d="M229 1026C229 1025.6 228.667 1024.83 228.5 1024.5C184.499 909.5 276.876 830.724 324 786.5C389.001 725.5 461.025 678.326 517.499 608C671.647 416.042 252.999 148.5 351 2.5C351.333 2.16667 352 1.4 352 1" stroke="#E6C56B" stroke-width="3"/>
<path id="line6" d="M305 1026C305 1025.6 304.333 1025.17 304 1025C210.5 924 346.375 830.724 393.5 786.5C458.5 725.5 537.511 660.845 577.5 580C687.556 357.5 305.056 180.5 395 2C395.333 1.83333 396 1.4 396 1" stroke="#E6C56B" stroke-width="3"/>
<path id="note1" d="M315.927 452.5C312.76 471.5 306.227 509.9 305.427 511.5C298.427 508 293.927 510 290.427 513.5C286.427 519.5 287.927 524.5 290.927 527C298.726 533.5 308.427 527 309.927 522.5L320.427 465.5L364.427 463L358.427 507C340.827 503.4 338.427 512.5 338.927 519.5C339.569 528.5 348.927 528.5 354.427 527C363.099 524.635 363.927 515 364.427 511.5L372.427 448L315.927 452.5Z" fill="#E6C56B" stroke="#D4AF37"/>
<path id="note2" d="M151.621 89.5752C153.049 104.306 155.837 134.104 155.561 135.45C149.67 134.245 146.728 136.624 144.827 139.917C143.051 145.166 145.159 148.578 147.882 149.837C154.963 153.11 160.87 146.357 161.088 142.719L157.546 98.3283L189.703 87.7231L194 121.571C180.222 122.399 180.251 129.63 182.014 134.726C184.281 141.277 191.225 139.416 195.009 137.209C200.974 133.73 199.673 126.414 199.348 123.718L192.658 75L151.621 89.5752Z" fill="#E6C56B" stroke="#D4AF37"/>
<path id="note3" d="M437.57 724.037C436.144 732.637 433.204 750.018 432.844 750.742C429.693 749.158 427.668 750.063 426.092 751.647C424.292 754.363 424.967 756.626 426.317 757.757C429.828 760.7 434.194 757.757 434.869 755.721L439.595 729.921L459.399 728.789L456.699 748.705C448.777 747.075 447.697 751.194 447.922 754.363C448.211 758.436 452.423 758.436 454.898 757.757C458.802 756.687 459.174 752.326 459.399 750.742L463 722L437.57 724.037Z" fill="#E6C56B" stroke="#D4AF37"/>
<path id="note4" d="M241.624 839.063C236.747 848.475 226.823 867.476 226.136 868.179C223.105 865.167 220.433 865.455 218.024 866.698C214.93 869.164 214.855 872.035 215.984 873.849C218.918 878.566 225.051 876.799 226.595 874.696L241.742 846.627L264.965 852.734L254.363 874.756C245.857 869.905 243.064 874.264 242.131 878.013C240.931 882.833 245.78 884.41 248.885 884.552C253.781 884.775 255.851 879.871 256.706 878.123L271.664 846.23L241.624 839.063Z" fill="#E6C56B" stroke="#D4AF37"/>
<g id="note5">
<path id="Vector 17" d="M313.685 904.63C312.185 904.631 311.518 905.297 310.685 906.13L309.685 935.631L312.685 936.131L313.685 904.63Z" fill="#E6C56B" stroke="#D4AF37"/>
<path id="Vector 16" d="M311.185 897.131L311.685 889.131C313.685 888.131 313.685 887.964 315.685 886.631L315.185 895.631C313.685 895.631 312.518 895.964 311.185 897.131Z" fill="#E6C56B" stroke="#D4AF37"/>
<path id="Vector 14" d="M335.683 841.757C332.683 837.257 327.245 837.131 323.183 839.631C316.683 843.631 312.645 861.588 312.683 875.131L317.185 871.631C318.685 864.131 320.185 853.09 323.685 850.757C326.685 848.757 328.35 849.923 329.683 850.757C331.283 852.757 329.35 857.59 328.183 859.757C327.288 863.115 322.694 867.676 317.683 871.77C313.743 874.99 310.683 877.535 306.683 879.757C298.183 884.479 283.185 898.131 282.185 908.257C281.951 910.631 281.926 912.131 282.185 914.631C283.685 929.131 298.183 940.257 310.183 941.46C310.89 941.589 312.559 941.687 313.183 941.757C326.183 943.201 331.365 936.911 335.683 933.257C342.183 927.757 342.183 920.257 342.183 913.757C341.783 906.957 339.183 903.257 336.183 900.757C329.683 895.757 325.855 895.757 321.183 895.757C318.183 895.757 317.183 895.94 315.183 896.257L315.176 896.258C314.18 896.416 313.573 896.512 312.183 897.257L312.183 897.257C308.685 899.131 308.685 899.131 306.183 902.757C302.941 907.455 301.683 913.257 302.683 918.257C302.983 919.757 304.683 919.757 304.683 918.257C304.683 911.223 308.304 907.128 311.204 905.257C312.183 904.625 312.615 904.457 313.183 904.257C314.183 904.079 313.853 904.13 314.183 904.079C321.683 902.905 328.183 905.757 330.183 907.257C332.85 909.257 335.683 915.102 335.683 920.257C335.683 927.057 329.408 933.528 326.183 934.757C321.992 936.353 317.544 936.689 313.683 936.458C312.447 936.384 311.271 936.253 310.183 936.086C307.858 935.729 305.935 935.212 304.683 934.757C299.182 932.757 294.683 925.757 292.683 922.257C290.397 918.257 291.379 911.97 292.183 908.257C293.185 903.631 301.016 896.423 304.683 893.257C307.183 891.097 310.41 889.756 312.683 888.257C314.956 886.758 312.183 888.575 315.683 886.257C321.197 881.818 327.355 876.475 330.183 873.257C333.683 869.274 336.683 861.257 337.683 855.257C338.48 850.474 337.637 844.688 335.683 841.757Z" fill="#E6C56B" stroke="#D4AF37"/>
<path id="Vector 18" d="M312.685 942.131H309.185C309.185 953.131 305.685 962.131 302.185 962.131H299.185C296.685 962.131 296.685 960.631 296.685 959.631V958.631C296.685 957.131 300.185 956.131 300.185 954.631V952.131C300.185 949.731 299.685 948.631 296.685 948.631H293.185C289.685 948.631 288.185 949.631 288.185 953.131V956.631C288.185 961.131 292.185 966.131 296.685 966.131H302.185C311.043 966.131 312.685 949.631 312.685 942.131Z" fill="#E6C56B" stroke="#D4AF37"/>
</g>
<g id="note6">
<path id="Vector 17_2" d="M465.539 210.446C463.619 210.446 462.767 211.299 461.7 212.365L460.421 250.109L464.259 250.748L465.539 210.446Z" fill="#E6C56B" stroke="#D4AF37"/>
<path id="Vector 16_2" d="M462.34 200.85L462.98 190.615C465.538 189.336 465.538 189.122 468.097 187.417L467.458 198.931C465.538 198.931 464.046 199.358 462.34 200.85Z" fill="#E6C56B" stroke="#D4AF37"/>
<path id="Vector 14_2" d="M493.684 130.004C489.845 124.246 482.888 124.085 477.691 127.284C469.375 132.402 464.208 155.377 464.257 172.703L470.017 168.225C471.936 158.63 473.855 144.504 478.333 141.519C482.171 138.96 484.301 140.452 486.007 141.519C488.054 144.077 485.581 150.261 484.088 153.033C482.942 157.331 477.065 163.165 470.654 168.404C465.613 172.524 461.698 175.779 456.58 178.622C445.705 184.663 426.516 202.131 425.237 215.085C424.937 218.124 424.906 220.043 425.237 223.241C427.156 241.793 445.705 256.027 461.058 257.566C461.962 257.732 464.098 257.857 464.897 257.946C481.529 259.794 488.159 251.746 493.684 247.071C502 240.034 502 230.439 502 222.122C501.488 213.422 498.162 208.688 494.323 205.49C486.007 199.093 481.109 199.093 475.132 199.093C471.294 199.093 470.014 199.327 467.456 199.732L467.446 199.734C466.172 199.936 465.396 200.059 463.617 201.012C459.142 203.41 459.142 203.41 455.941 208.049C451.792 214.06 450.183 221.483 451.463 227.88C451.847 229.799 454.022 229.799 454.021 227.88C454.021 218.88 458.654 213.641 462.364 211.247C463.617 210.439 464.169 210.224 464.897 209.968C466.176 209.74 465.754 209.806 466.176 209.74C475.772 208.238 484.088 211.887 486.647 213.806C490.059 216.365 493.684 223.843 493.684 230.439C493.684 239.139 485.654 247.419 481.529 248.99C476.167 251.033 470.476 251.462 465.536 251.167C463.955 251.073 462.45 250.904 461.058 250.691C458.084 250.234 455.623 249.572 454.021 248.99C446.984 246.431 441.228 237.475 438.668 232.997C435.744 227.88 436.999 219.837 438.029 215.085C439.311 209.168 449.33 199.946 454.021 195.894C457.22 193.131 461.349 191.415 464.257 189.497C467.165 187.579 463.617 189.904 468.095 186.938C475.149 181.259 483.028 174.424 486.647 170.306C491.125 165.21 494.963 154.952 496.243 147.276C497.262 141.157 496.184 133.754 493.684 130.004Z" fill="#E6C56B" stroke="#D4AF37"/>
<path id="Vector 18_2" d="M464.259 258.425H459.781C459.781 272.498 455.303 284.013 450.825 284.013H446.987C443.788 284.013 443.788 282.094 443.788 280.815V279.535C443.788 277.616 448.266 276.337 448.266 274.418V271.219C448.266 268.148 447.626 266.741 443.788 266.741H439.31C434.832 266.741 432.913 268.02 432.913 272.498V276.976C432.913 282.734 438.031 289.131 443.788 289.131H450.825C462.158 289.131 464.259 268.02 464.259 258.425Z" fill="#E6C56B" stroke="#D4AF37"/>
</g>
<g id="note6_2">
<path id="Vector 17_3" d="M59.2429 896.369C58.3544 896.785 58.1443 897.365 57.8818 898.089L65.4691 915.841L67.3847 915.305L59.2429 896.369Z" fill="#E6C56B" stroke="#D4AF37"/>
<path id="Vector 16_3" d="M55.6828 892.62L53.7608 887.743C54.6682 886.596 54.622 886.497 55.437 885.153L57.6363 890.622C56.7478 891.038 56.1491 891.559 55.6828 892.62Z" fill="#E6C56B" stroke="#D4AF37"/>
<path id="Vector 14_3" d="M54.8399 853.027C51.8152 851.194 48.5593 852.627 46.8463 855.234C44.1054 859.406 46.6926 871.162 50.47 879.173L52.1661 875.852C50.9751 870.993 48.8023 864.038 50.2285 861.685C51.4509 859.669 52.7605 859.898 53.7814 860.022C55.2837 860.763 55.4787 864.162 55.3884 865.769C55.7891 868.007 54.3326 871.981 52.4999 875.796C51.0588 878.796 49.9519 881.152 48.1987 883.577C44.4731 888.731 39.3748 900.976 41.5899 907.251C42.1094 908.723 42.511 909.618 43.3573 911.027C48.2663 919.2 59.9388 921.77 67.3804 919.155C67.8348 919.036 68.8509 918.631 69.2397 918.499C77.3405 915.75 78.6656 910.587 80.2103 907.226C82.5355 902.166 80.456 897.723 78.6537 893.873C76.5313 889.956 73.9653 888.485 71.4952 887.836C66.2586 886.677 63.9911 887.738 61.2238 889.034C59.4468 889.866 58.9053 890.251 57.8085 890.993L57.8043 890.996C57.2584 891.366 56.9256 891.591 56.3088 892.418L56.3087 892.418C54.7565 894.498 54.7565 894.498 54.2798 897.339C53.6619 901.021 54.5256 904.806 56.5043 907.491C57.0979 908.296 58.1049 907.825 57.6889 906.936C55.7385 902.77 56.7477 899.34 57.9467 897.428C58.3517 896.782 58.5608 896.563 58.842 896.287C59.3849 895.904 59.2036 896.026 59.3849 895.904C63.502 893.129 68.1429 893.016 69.7434 893.35C71.8775 893.795 75.1765 896.472 76.6058 899.525C78.4913 903.553 76.5684 909.127 74.9991 910.748C72.9594 912.856 70.4175 914.288 68.0667 915.222C67.3141 915.521 66.581 915.769 65.8903 915.972C64.4142 916.405 63.1314 916.632 62.2639 916.71C58.451 917.05 53.8453 914.151 51.6901 912.633C49.227 910.897 48.0652 906.902 47.512 904.479C46.8231 901.461 49.4632 895.02 50.7571 892.128C51.6393 890.156 53.1787 888.466 54.1095 886.948C55.0403 885.43 53.9016 887.275 55.3319 884.932C57.3668 880.773 59.5332 875.902 60.3162 873.211C61.285 869.881 60.8391 864.301 59.7678 860.469C58.9138 857.415 56.81 854.222 54.8399 853.027Z" fill="#E6C56B" stroke="#D4AF37"/>
<path id="Vector 18_3" d="M69.0483 918.859L66.9751 919.83C70.0251 926.345 70.4474 932.647 68.3742 933.617L66.5972 934.449C65.1164 935.142 64.7005 934.254 64.4232 933.661L64.1459 933.069C63.73 932.181 65.5259 930.618 65.11 929.729L64.4168 928.248C63.7514 926.827 63.1502 926.314 61.3732 927.146L59.3001 928.116C57.2269 929.087 56.6157 930.095 57.5861 932.168L58.5566 934.241C59.8043 936.907 63.56 938.759 66.2255 937.511L69.4833 935.986C74.7301 933.53 71.1278 923.302 69.0483 918.859Z" fill="#E6C56B" stroke="#D4AF37"/>
</g>
<g id="note7">
<path id="Vector 17_4" d="M440.356 425.937C439.926 426.139 439.824 426.42 439.697 426.771L443.375 435.375L444.303 435.116L440.356 425.937Z" fill="#E6C56B" stroke="#D4AF37"/>
<path id="Vector 16_4" d="M438.631 424.119L437.7 421.755C438.14 421.199 438.117 421.151 438.512 420.5L439.578 423.151C439.148 423.353 438.857 423.605 438.631 424.119Z" fill="#E6C56B" stroke="#D4AF37"/>
<path id="Vector 14_4" d="M438.223 404.928C436.757 404.039 435.179 404.734 434.348 405.998C433.02 408.02 434.274 413.718 436.105 417.602L436.927 415.992C436.35 413.637 435.296 410.265 435.988 409.125C436.58 408.147 437.215 408.258 437.71 408.318C438.438 408.678 438.533 410.325 438.489 411.104C438.683 412.189 437.977 414.116 437.089 415.965C436.39 417.419 435.854 418.561 435.004 419.736C433.198 422.234 430.727 428.17 431.8 431.212C432.052 431.925 432.247 432.359 432.657 433.042C435.037 437.004 440.695 438.249 444.302 436.982C444.522 436.924 445.015 436.728 445.203 436.664C449.13 435.331 449.772 432.829 450.521 431.199C451.648 428.747 450.64 426.593 449.766 424.727C448.738 422.828 447.494 422.115 446.296 421.801C443.758 421.239 442.659 421.753 441.318 422.381C440.456 422.784 440.194 422.971 439.662 423.331L439.66 423.333C439.395 423.512 439.234 423.621 438.935 424.022C438.183 425.03 438.183 425.03 437.952 426.407C437.652 428.192 438.071 430.027 439.03 431.328C439.318 431.718 439.806 431.49 439.604 431.059C438.659 429.039 439.148 427.377 439.729 426.45C439.925 426.137 440.027 426.031 440.163 425.897C440.426 425.711 440.338 425.771 440.426 425.711C442.422 424.366 444.671 424.312 445.447 424.474C446.482 424.689 448.081 425.987 448.774 427.467C449.688 429.419 448.755 432.121 447.995 432.907C447.006 433.929 445.774 434.623 444.635 435.075C444.27 435.22 443.914 435.341 443.58 435.439C442.864 435.649 442.242 435.759 441.822 435.797C439.974 435.962 437.741 434.556 436.696 433.82C435.502 432.979 434.939 431.042 434.671 429.868C434.337 428.405 435.617 425.283 436.244 423.881C436.672 422.925 437.418 422.106 437.869 421.37C438.32 420.634 437.768 421.529 438.462 420.393C439.448 418.377 440.498 416.016 440.878 414.711C441.347 413.098 441.131 410.392 440.612 408.535C440.198 407.055 439.178 405.507 438.223 404.928Z" fill="#E6C56B" stroke="#D4AF37"/>
<path id="Vector 18_4" d="M445.11 436.839L444.105 437.309C445.583 440.467 445.788 443.522 444.783 443.992L443.922 444.395C443.204 444.731 443.002 444.301 442.868 444.014L442.733 443.726C442.532 443.296 443.402 442.538 443.201 442.108L442.865 441.39C442.542 440.701 442.251 440.452 441.389 440.855L440.384 441.326C439.379 441.796 439.083 442.285 439.554 443.29L440.024 444.295C440.629 445.587 442.449 446.485 443.741 445.88L445.321 445.141C447.864 443.95 446.118 438.992 445.11 436.839Z" fill="#E6C56B" stroke="#D4AF37"/>
</g>
<g id="note8">
<path id="Vector 17_5" d="M415.349 613.261C414.004 613.19 413.374 613.756 412.587 614.463L410.282 640.869L412.948 641.461L415.349 613.261Z" fill="#E6C56B" stroke="#D4AF37"/>
<path id="Vector 16_5" d="M413.465 606.417L414.296 599.267C416.137 598.466 416.145 598.316 418.002 597.216L417.124 605.263C415.779 605.191 414.717 605.434 413.465 606.417Z" fill="#E6C56B" stroke="#D4AF37"/>
<path id="Vector 14_5" d="M438.078 557.932C435.603 553.753 430.732 553.381 426.97 555.429C420.951 558.706 416.472 574.615 415.86 586.761L420.064 583.837C421.767 577.184 423.639 567.355 426.889 565.43C429.675 563.779 431.112 564.905 432.268 565.716C433.607 567.586 431.643 571.828 430.493 573.715C429.529 576.684 425.193 580.554 420.504 583.986C416.817 586.686 413.952 588.821 410.259 590.623C402.411 594.451 388.31 605.977 386.93 615.009C386.606 617.127 386.513 618.471 386.625 620.725C387.278 633.799 399.748 644.468 410.451 646.12C411.078 646.27 412.571 646.437 413.127 646.529C424.715 648.445 429.662 643.052 433.709 639.982C439.8 635.36 440.158 628.635 440.468 622.806C440.435 616.689 438.28 613.247 435.709 610.862C430.119 606.068 426.686 605.885 422.497 605.662C419.807 605.519 418.901 605.636 417.093 605.824L417.086 605.825C416.186 605.919 415.637 605.976 414.355 606.578L414.355 606.578C411.129 608.092 411.129 608.092 408.712 611.223C405.58 615.281 404.175 620.424 404.833 624.955C405.031 626.314 406.555 626.396 406.627 625.051C406.962 618.743 410.405 615.244 413.095 613.705C414.003 613.185 414.398 613.055 414.917 612.902C415.823 612.79 415.524 612.821 415.823 612.79C422.604 612.096 428.296 614.964 430.018 616.404C432.314 618.325 434.576 623.702 434.329 628.324C434.005 634.422 428.068 639.926 425.118 640.873C421.284 642.105 417.279 642.193 413.828 641.802C412.723 641.677 411.675 641.502 410.707 641.301C408.64 640.87 406.939 640.314 405.839 639.846C401.002 637.79 397.302 631.298 395.675 628.064C393.816 624.368 394.996 618.778 395.895 615.487C397.015 611.387 404.381 605.297 407.82 602.633C410.165 600.816 413.123 599.767 415.233 598.531C417.343 597.296 414.769 598.793 418.019 596.881C423.175 593.164 428.952 588.667 431.642 585.916C434.971 582.512 438.043 575.466 439.227 570.133C440.17 565.883 439.69 560.654 438.078 557.932Z" fill="#E6C56B" stroke="#D4AF37"/>
<path id="Vector 18_5" d="M412.662 646.841L409.523 646.674C408.998 656.538 405.43 664.441 402.291 664.274L399.601 664.131C397.359 664.012 397.431 662.667 397.479 661.77L397.527 660.873C397.598 659.528 400.784 658.798 400.856 657.453L400.975 655.212C401.09 653.059 400.694 652.049 398.004 651.906L394.866 651.739C391.727 651.572 390.334 652.397 390.167 655.535L390 658.674C389.785 662.709 393.133 667.384 397.168 667.598L402.1 667.861C410.043 668.284 412.304 653.567 412.662 646.841Z" fill="#E6C56B" stroke="#D4AF37"/>
</g>
<path id="note9" d="M237 785.5C247 777.1 251.5 767 252.5 763C253 761 254.5 762.324 254.5 764C254.5 773.5 239 796 237 796H232L231 731C231 725 235.5 722.5 241 722C250 722 250 726 250 729.5C250 733.5 240 740 235.5 742.5L237 785.5Z" fill="#E6C56B" stroke="#D4AF37"/>
<path id="note10" d="M320.69 372.73C332.036 365.669 338.057 356.09 339.65 352.183C340.446 350.229 341.774 351.787 341.531 353.485C340.155 363.109 321.196 383.656 319.17 383.367L314.105 382.643L322.504 316.654C323.373 310.576 328.294 308.695 333.937 308.985C343.054 310.288 342.475 314.34 341.968 317.885C341.389 321.937 330.318 327.074 325.397 328.955L320.69 372.73Z" fill="#E6C56B" stroke="#D4AF37"/>
<path id="note11" d="M284.713 153.693C284.313 167.293 287.546 182.693 289.213 188.693C277.612 192.293 279.379 199.86 281.713 203.193C285.563 208.693 293.713 201.693 296.213 198.193C291.813 189.793 288.046 165.026 286.713 153.693C286.419 151.193 284.713 151.692 284.713 153.693Z" fill="#E6C56B" stroke="#D4AF37"/>
<path id="note12" d="M561.713 587.693C561.313 601.293 564.546 616.693 566.213 622.693C554.612 626.293 556.379 633.86 558.713 637.193C562.563 642.693 570.713 635.693 573.213 632.193C568.813 623.793 565.046 599.026 563.713 587.693C563.419 585.193 561.713 585.692 561.713 587.693Z" fill="#E6C56B" stroke="#D4AF37"/>
<path id="note13" d="M241.341 537.01C233.51 548.137 227.719 562.768 225.802 568.693C214.139 565.302 211.442 572.589 211.552 576.657C211.732 583.368 222.391 582.02 226.406 580.478C227.365 571.044 237.875 548.304 243.01 538.113C244.143 535.865 242.444 535.341 241.341 537.01Z" fill="#E6C56B" stroke="#D4AF37"/>
<path id="note14" d="M374.483 207.622C372.88 220.299 374.512 234.988 375.528 240.747C364.359 243.065 365.327 250.298 367.208 253.625C370.311 259.115 378.561 253.307 381.215 250.26C377.86 242.01 376.575 218.517 376.352 207.802C376.303 205.438 374.663 205.751 374.483 207.622Z" fill="#E6C56B" stroke="#D4AF37"/>
<path id="note15" d="M165.713 683.693C165.313 697.293 168.546 712.693 170.213 718.693C158.612 722.293 160.379 729.86 162.713 733.193C166.563 738.693 174.713 731.693 177.213 728.193C172.813 719.793 169.046 695.026 167.713 683.693C167.419 681.193 165.713 681.692 165.713 683.693Z" fill="#E6C56B" stroke="#D4AF37"/>
<path id="note16" d="M543.008 444.026L533.441 392C552.962 389.473 555.357 412.76 554.114 424.719C559.047 415.313 556.611 401.463 554.776 395.713C552.001 389.318 546.587 385.599 543.773 384.788C535.332 382.357 531.079 379.155 530.429 375.622C530.252 374.659 528.931 372.909 527.964 373.087L523.453 373.917L535.501 439.431C530.174 435.098 526.178 435.833 521.785 437.305C513.313 440.143 513.74 446.088 515.856 450.347C518.123 454.91 521.811 455.56 525.033 454.968L534.055 453.309C540.177 452.183 543.48 446.595 543.008 444.026Z" fill="#E6C56B" stroke="#D4AF37"/>
<path id="note17" d="M310.649 670.138L301.933 622.737C319.719 620.434 321.901 641.651 320.769 652.548C325.263 643.977 323.043 631.358 321.372 626.119C318.843 620.292 313.911 616.904 311.347 616.165C303.655 613.95 299.78 611.032 299.188 607.814C299.027 606.936 297.823 605.342 296.943 605.504L292.833 606.26L303.809 665.951C298.956 662.004 295.315 662.673 291.313 664.014C283.594 666.6 283.983 672.017 285.911 675.898C287.976 680.055 291.336 680.647 294.272 680.107L302.492 678.596C308.07 677.57 311.08 672.479 310.649 670.138Z" fill="#E6C56B" stroke="#D4AF37"/>
<path id="note18" d="M128.413 961.983L121.784 925.936C135.31 924.185 136.969 940.32 136.108 948.606C139.526 942.089 137.838 932.492 136.567 928.509C134.644 924.078 130.893 921.501 128.943 920.939C123.094 919.254 120.148 917.036 119.697 914.588C119.575 913.921 118.659 912.709 117.99 912.832L114.864 913.407L123.211 958.799C119.521 955.797 116.752 956.306 113.709 957.326C107.839 959.293 108.134 963.412 109.6 966.363C111.171 969.524 113.726 969.975 115.959 969.564L122.21 968.415C126.452 967.635 128.74 963.763 128.413 961.983Z" fill="#E6C56B" stroke="#D4AF37"/>
<path id="note19" d="M344.075 103.585L345.688 55.4151C363.556 56.966 361.154 78.1595 357.719 88.5624C363.941 81.1502 364.469 68.348 363.955 62.8734C362.73 56.6407 358.636 52.2766 356.289 51.0073C349.248 47.1994 346.086 43.5214 346.196 40.2506C346.226 39.3586 345.39 37.5445 344.495 37.5146L340.319 37.3747L338.287 98.0326C334.389 93.1393 330.69 93.0154 326.493 93.4702C318.4 94.3473 317.623 99.722 318.677 103.925C319.806 108.428 322.962 109.724 325.946 109.824L334.299 110.104C339.967 110.294 343.995 105.963 344.075 103.585Z" fill="#E6C56B" stroke="#D4AF37"/>
</g>
</svg>
